<svg width="227" height="229" viewBox="0 0 227 229" fill="none" xmlns="http://www.w3.org/2000/svg">
<g clip-path="url(#clip0_546_107)">
<path d="M209.811 18.8214C186.581 42.0515 147.53 89.4508 127.779 81.2522C105.464 71.9895 119.976 18.6399 115.076 13.7398C107.998 6.66185 74.2413 21.9066 64.9854 26.8067" stroke="white" stroke-width="23.6504"/>
<path d="M15.9725 18.1426C39.9061 40.6473 88.4838 78.222 80.8967 98.2152C72.3245 120.805 18.5539 107.941 13.8068 112.989C6.94988 120.282 23.2256 153.553 28.408 162.654" stroke="white" stroke-width="23.6504"/>
<path d="M17.8379 209.786C41.0922 186.58 80.1924 139.222 99.9344 147.441C122.24 156.727 107.673 210.062 112.568 214.967C119.639 222.052 153.411 206.842 162.672 201.952" stroke="white" stroke-width="23.6504"/>
<path d="M212.532 207.573C188.158 185.546 138.846 148.941 146.036 128.801C154.16 106.046 208.174 117.843 212.82 112.702C219.531 105.275 202.6 72.3326 197.239 63.3359" stroke="white" stroke-width="23.6504"/>
</g>
<defs>
<clipPath id="clip0_546_107">
<rect width="226.614" height="228.764" fill="white"/>
</clipPath>
</defs>
</svg>
